<svg width="420" height="420" viewBox="0 0 420 420" fill="none" xmlns="http://www.w3.org/2000/svg">
  <rect width="420" height="420" fill="#FFF7ED"/>
  <g opacity="0.12" stroke="#7F1D1D" stroke-width="1">
    <path d="M0 48H420M0 102H420M0 156H420M0 210H420M0 264H420M0 318H420M0 372H420"/>
    <path d="M48 0V420M102 0V420M156 0V420M210 0V420M264 0V420M318 0V420M372 0V420"/>
  </g>
  <g opacity="0.18" fill="#B45309">
    <circle cx="42" cy="52" r="1.5"/><circle cx="188" cy="86" r="1.2"/><circle cx="273" cy="134" r="1.4"/><circle cx="93" cy="201" r="1.1"/><circle cx="229" cy="248" r="1.3"/><circle cx="146" cy="286" r="1.2"/><circle cx="355" cy="310" r="1.4"/>
  </g>
</svg>